<mxfile host="65bd71144e" modified="2020-10-20T00:19:56.807Z" agent="5.0 (Macintosh; Intel Mac OS X 10_14_6) AppleWebKit/537.36 (KHTML, like Gecko) Code/1.48.2 Chrome/78.0.3904.130 Electron/7.3.2 Safari/537.36" version="13.6.5" etag="nVUyWE8coQy21eKJYBb9">
    <diagram id="QNNbduFmZcMBfbZ14_xa" name="Page-1">
        <mxGraphModel dx="1138" dy="735" grid="1" gridSize="10" guides="1" tooltips="1" connect="1" arrows="1" fold="1" page="1" pageScale="1" pageWidth="827" pageHeight="1169" math="0" shadow="0">
            <root>
                <mxCell id="0"/>
                <mxCell id="1" parent="0"/>
                <mxCell id="2" value="NotContacted" style="html=1;" vertex="1" parent="1">
                    <mxGeometry x="177.5" y="200" width="110" height="50" as="geometry"/>
                </mxCell>
                <mxCell id="3" value="&amp;lt;package&amp;gt; query_pool::peers::closest" style="shape=folder;fontStyle=1;spacingTop=10;tabWidth=40;tabHeight=14;tabPosition=left;html=1;" vertex="1" parent="1">
                    <mxGeometry x="80" y="40" width="350" height="40" as="geometry"/>
                </mxCell>
                <mxCell id="4" value="QueryPeerState" style="shape=note;whiteSpace=wrap;html=1;backgroundOutline=1;darkOpacity=0.05;fontStyle=1" vertex="1" parent="1">
                    <mxGeometry x="150" y="100" width="165" height="60" as="geometry"/>
                </mxCell>
                <mxCell id="5" value="Waiting" style="html=1;" vertex="1" parent="1">
                    <mxGeometry x="177.5" y="320" width="110" height="50" as="geometry"/>
                </mxCell>
                <mxCell id="6" value="Unresponsive" style="html=1;" vertex="1" parent="1">
                    <mxGeometry x="350" y="585" width="110" height="50" as="geometry"/>
                </mxCell>
                <mxCell id="8" value="Failed" style="html=1;" vertex="1" parent="1">
                    <mxGeometry x="30" y="500" width="110" height="50" as="geometry"/>
                </mxCell>
                <mxCell id="9" value="Succeeded" style="html=1;" vertex="1" parent="1">
                    <mxGeometry x="177.5" y="600" width="110" height="50" as="geometry"/>
                </mxCell>
                <mxCell id="11" value="see:&lt;br&gt;QueryPeer::new()" style="rounded=1;whiteSpace=wrap;html=1;align=left;" vertex="1" parent="1">
                    <mxGeometry x="330" y="190" width="130" height="60" as="geometry"/>
                </mxCell>
                <mxCell id="12" value="see:&lt;br&gt;FindNodeQuery::next()" style="rounded=1;whiteSpace=wrap;html=1;align=left;" vertex="1" parent="1">
                    <mxGeometry x="340" y="315" width="180" height="60" as="geometry"/>
                </mxCell>
                <mxCell id="13" value="" style="endArrow=classic;html=1;exitX=0.5;exitY=1;exitDx=0;exitDy=0;entryX=0.5;entryY=0;entryDx=0;entryDy=0;" edge="1" parent="1" source="2" target="5">
                    <mxGeometry width="50" height="50" relative="1" as="geometry">
                        <mxPoint x="70" y="370" as="sourcePoint"/>
                        <mxPoint x="120" y="320" as="targetPoint"/>
                    </mxGeometry>
                </mxCell>
                <mxCell id="14" value="" style="endArrow=classic;html=1;exitX=0.5;exitY=1;exitDx=0;exitDy=0;" edge="1" parent="1" source="5">
                    <mxGeometry width="50" height="50" relative="1" as="geometry">
                        <mxPoint x="242.5" y="390" as="sourcePoint"/>
                        <mxPoint x="233" y="480" as="targetPoint"/>
                    </mxGeometry>
                </mxCell>
                <mxCell id="15" value="Service sends a RPC request." style="rounded=1;whiteSpace=wrap;html=1;align=left;" vertex="1" parent="1">
                    <mxGeometry x="260" y="400" width="180" height="60" as="geometry"/>
                </mxCell>
            </root>
        </mxGraphModel>
    </diagram>
</mxfile>